<svg xmlns="http://www.w3.org/2000/svg" width="720" height="470" viewBox="0 0 720 470" font-family="-apple-system,Segoe UI,Roboto,sans-serif" role="img"><title>Cosine similarity overlap</title><desc>Paraphrases span 0.71-0.94; traps span 0.59-0.997 and overlap them. Identifier swaps and negations cluster above 0.85, higher than most real paraphrases.</desc><text x="20" y="26" font-size="15" font-weight="500" fill="#3f3f3c">Cosine similarity: safe paraphrases vs traps (same embeddings, 94 queries)</text><circle cx="26" cy="44" r="5" fill="#639922"/><text x="36" y="48" font-size="12" fill="#73726c">should reuse (27)</text><polygon points="206,40 212,50 200,50" fill="#E24B4A"/><text x="218" y="48" font-size="12" fill="#73726c">must NOT reuse (67)</text><line x1="372" y1="44" x2="392" y2="44" stroke="#888780" stroke-width="2" stroke-dasharray="5 4"/><text x="398" y="48" font-size="12" fill="#73726c">0.85 cutoff</text><rect x="516.7" y="52" width="173.3" height="344" fill="#E24B4A" fill-opacity="0.06"/><line x1="227.8" y1="52" x2="227.8" y2="396" stroke="#e7e5df" stroke-width="1"/><text x="227.8" y="412" font-size="11" fill="#73726c" text-anchor="middle">0.60</text><line x1="343.3" y1="52" x2="343.3" y2="396" stroke="#e7e5df" stroke-width="1"/><text x="343.3" y="412" font-size="11" fill="#73726c" text-anchor="middle">0.70</text><line x1="458.9" y1="52" x2="458.9" y2="396" stroke="#e7e5df" stroke-width="1"/><text x="458.9" y="412" font-size="11" fill="#73726c" text-anchor="middle">0.80</text><line x1="516.7" y1="52" x2="516.7" y2="396" stroke="#e7e5df" stroke-width="1"/><text x="516.7" y="412" font-size="11" fill="#73726c" text-anchor="middle">0.85</text><line x1="574.4" y1="52" x2="574.4" y2="396" stroke="#e7e5df" stroke-width="1"/><text x="574.4" y="412" font-size="11" fill="#73726c" text-anchor="middle">0.90</text><line x1="690.0" y1="52" x2="690.0" y2="396" stroke="#e7e5df" stroke-width="1"/><text x="690.0" y="412" font-size="11" fill="#73726c" text-anchor="middle">1.00</text><text x="430" y="430" font-size="12" fill="#73726c" text-anchor="middle">cosine similarity to cached query</text><line x1="516.7" y1="52" x2="516.7" y2="396" stroke="#888780" stroke-width="2" stroke-dasharray="5 4"/><text x="158" y="74" font-size="12" fill="#3f3f3c" text-anchor="end">paraphrase</text><circle cx="351.7" cy="64.0" r="4" fill="#639922" fill-opacity="0.9"/><circle cx="400.3" cy="70.0" r="4" fill="#639922" fill-opacity="0.9"/><circle cx="403.5" cy="76.0" r="4" fill="#639922" fill-opacity="0.9"/><circle cx="406.7" cy="64.0" r="4" fill="#639922" fill-opacity="0.9"/><circle cx="468.5" cy="70.0" r="4" fill="#639922" fill-opacity="0.9"/><circle cx="479.2" cy="76.0" r="4" fill="#639922" fill-opacity="0.9"/><circle cx="482.6" cy="64.0" r="4" fill="#639922" fill-opacity="0.9"/><circle cx="488.9" cy="70.0" r="4" fill="#639922" fill-opacity="0.9"/><circle cx="496.0" cy="76.0" r="4" fill="#639922" fill-opacity="0.9"/><circle cx="501.5" cy="64.0" r="4" fill="#639922" fill-opacity="0.9"/><circle cx="514.2" cy="70.0" r="4" fill="#639922" fill-opacity="0.9"/><circle cx="515.6" cy="76.0" r="4" fill="#639922" fill-opacity="0.9"/><circle cx="528.8" cy="64.0" r="4" fill="#639922" fill-opacity="0.9"/><circle cx="539.0" cy="70.0" r="4" fill="#639922" fill-opacity="0.9"/><circle cx="542.8" cy="76.0" r="4" fill="#639922" fill-opacity="0.9"/><circle cx="549.5" cy="64.0" r="4" fill="#639922" fill-opacity="0.9"/><circle cx="552.6" cy="70.0" r="4" fill="#639922" fill-opacity="0.9"/><circle cx="563.8" cy="76.0" r="4" fill="#639922" fill-opacity="0.9"/><circle cx="571.1" cy="64.0" r="4" fill="#639922" fill-opacity="0.9"/><circle cx="577.8" cy="70.0" r="4" fill="#639922" fill-opacity="0.9"/><circle cx="582.3" cy="76.0" r="4" fill="#639922" fill-opacity="0.9"/><circle cx="584.3" cy="64.0" r="4" fill="#639922" fill-opacity="0.9"/><circle cx="599.9" cy="70.0" r="4" fill="#639922" fill-opacity="0.9"/><circle cx="608.4" cy="76.0" r="4" fill="#639922" fill-opacity="0.9"/><circle cx="615.4" cy="64.0" r="4" fill="#639922" fill-opacity="0.9"/><circle cx="615.5" cy="70.0" r="4" fill="#639922" fill-opacity="0.9"/><circle cx="616.3" cy="76.0" r="4" fill="#639922" fill-opacity="0.9"/><text x="158" y="118" font-size="12" fill="#3f3f3c" text-anchor="end">identifier swap</text><polygon points="608.3,103.5 612.8,111.5 603.8,111.5" fill="#E24B4A" fill-opacity="0.9"/><polygon points="637.1,109.5 641.6,117.5 632.6,117.5" fill="#E24B4A" fill-opacity="0.9"/><polygon points="644.0,115.5 648.5,123.5 639.5,123.5" fill="#E24B4A" fill-opacity="0.9"/><polygon points="657.2,103.5 661.7,111.5 652.7,111.5" fill="#E24B4A" fill-opacity="0.9"/><polygon points="658.3,109.5 662.8,117.5 653.8,117.5" fill="#E24B4A" fill-opacity="0.9"/><polygon points="674.4,115.5 678.9,123.5 669.9,123.5" fill="#E24B4A" fill-opacity="0.9"/><polygon points="678.9,103.5 683.4,111.5 674.4,111.5" fill="#E24B4A" fill-opacity="0.9"/><polygon points="680.2,109.5 684.7,117.5 675.7,117.5" fill="#E24B4A" fill-opacity="0.9"/><polygon points="686.9,115.5 691.4,123.5 682.4,123.5" fill="#E24B4A" fill-opacity="0.9"/><text x="158" y="162" font-size="12" fill="#3f3f3c" text-anchor="end">negation</text><polygon points="517.8,147.5 522.3,155.5 513.3,155.5" fill="#E24B4A" fill-opacity="0.9"/><polygon points="525.0,153.5 529.5,161.5 520.5,161.5" fill="#E24B4A" fill-opacity="0.9"/><polygon points="569.8,159.5 574.3,167.5 565.3,167.5" fill="#E24B4A" fill-opacity="0.9"/><polygon points="577.6,147.5 582.1,155.5 573.1,155.5" fill="#E24B4A" fill-opacity="0.9"/><polygon points="591.2,153.5 595.7,161.5 586.7,161.5" fill="#E24B4A" fill-opacity="0.9"/><polygon points="613.3,159.5 617.8,167.5 608.8,167.5" fill="#E24B4A" fill-opacity="0.9"/><polygon points="617.7,147.5 622.2,155.5 613.2,155.5" fill="#E24B4A" fill-opacity="0.9"/><polygon points="641.0,153.5 645.5,161.5 636.5,161.5" fill="#E24B4A" fill-opacity="0.9"/><polygon points="643.5,159.5 648.0,167.5 639.0,167.5" fill="#E24B4A" fill-opacity="0.9"/><polygon points="649.4,147.5 653.9,155.5 644.9,155.5" fill="#E24B4A" fill-opacity="0.9"/><text x="158" y="206" font-size="12" fill="#3f3f3c" text-anchor="end">freshness</text><polygon points="439.5,191.5 444.0,199.5 435.0,199.5" fill="#E24B4A" fill-opacity="0.9"/><polygon points="442.1,197.5 446.6,205.5 437.6,205.5" fill="#E24B4A" fill-opacity="0.9"/><polygon points="465.1,203.5 469.6,211.5 460.6,211.5" fill="#E24B4A" fill-opacity="0.9"/><polygon points="479.2,191.5 483.7,199.5 474.7,199.5" fill="#E24B4A" fill-opacity="0.9"/><polygon points="490.7,197.5 495.2,205.5 486.2,205.5" fill="#E24B4A" fill-opacity="0.9"/><polygon points="533.7,203.5 538.2,211.5 529.2,211.5" fill="#E24B4A" fill-opacity="0.9"/><polygon points="549.5,191.5 554.0,199.5 545.0,199.5" fill="#E24B4A" fill-opacity="0.9"/><polygon points="573.5,197.5 578.0,205.5 569.0,205.5" fill="#E24B4A" fill-opacity="0.9"/><polygon points="589.2,203.5 593.7,211.5 584.7,211.5" fill="#E24B4A" fill-opacity="0.9"/><polygon points="617.9,191.5 622.4,199.5 613.4,199.5" fill="#E24B4A" fill-opacity="0.9"/><text x="158" y="250" font-size="12" fill="#3f3f3c" text-anchor="end">principal swap</text><polygon points="290.1,235.5 294.6,243.5 285.6,243.5" fill="#E24B4A" fill-opacity="0.9"/><polygon points="428.4,241.5 432.9,249.5 423.9,249.5" fill="#E24B4A" fill-opacity="0.9"/><polygon points="431.0,247.5 435.5,255.5 426.5,255.5" fill="#E24B4A" fill-opacity="0.9"/><polygon points="492.7,235.5 497.2,243.5 488.2,243.5" fill="#E24B4A" fill-opacity="0.9"/><polygon points="495.3,241.5 499.8,249.5 490.8,249.5" fill="#E24B4A" fill-opacity="0.9"/><polygon points="562.4,247.5 566.9,255.5 557.9,255.5" fill="#E24B4A" fill-opacity="0.9"/><polygon points="576.1,235.5 580.6,243.5 571.6,243.5" fill="#E24B4A" fill-opacity="0.9"/><polygon points="583.3,241.5 587.8,249.5 578.8,249.5" fill="#E24B4A" fill-opacity="0.9"/><text x="158" y="294" font-size="12" fill="#3f3f3c" text-anchor="end">action</text><polygon points="263.7,279.5 268.2,287.5 259.2,287.5" fill="#E24B4A" fill-opacity="0.9"/><polygon points="324.0,285.5 328.5,293.5 319.5,293.5" fill="#E24B4A" fill-opacity="0.9"/><polygon points="375.0,291.5 379.5,299.5 370.5,299.5" fill="#E24B4A" fill-opacity="0.9"/><polygon points="385.4,279.5 389.9,287.5 380.9,287.5" fill="#E24B4A" fill-opacity="0.9"/><polygon points="388.6,285.5 393.1,293.5 384.1,293.5" fill="#E24B4A" fill-opacity="0.9"/><polygon points="449.4,291.5 453.9,299.5 444.9,299.5" fill="#E24B4A" fill-opacity="0.9"/><polygon points="453.5,279.5 458.0,287.5 449.0,287.5" fill="#E24B4A" fill-opacity="0.9"/><polygon points="488.6,285.5 493.1,293.5 484.1,293.5" fill="#E24B4A" fill-opacity="0.9"/><polygon points="510.0,291.5 514.5,299.5 505.5,299.5" fill="#E24B4A" fill-opacity="0.9"/><polygon points="584.7,279.5 589.2,287.5 580.2,287.5" fill="#E24B4A" fill-opacity="0.9"/><polygon points="597.3,285.5 601.8,293.5 592.8,293.5" fill="#E24B4A" fill-opacity="0.9"/><polygon points="605.5,291.5 610.0,299.5 601.0,299.5" fill="#E24B4A" fill-opacity="0.9"/><text x="158" y="338" font-size="12" fill="#3f3f3c" text-anchor="end">tier swap</text><polygon points="469.5,323.5 474.0,331.5 465.0,331.5" fill="#E24B4A" fill-opacity="0.9"/><polygon points="472.3,329.5 476.8,337.5 467.8,337.5" fill="#E24B4A" fill-opacity="0.9"/><polygon points="474.4,335.5 478.9,343.5 469.9,343.5" fill="#E24B4A" fill-opacity="0.9"/><polygon points="492.3,323.5 496.8,331.5 487.8,331.5" fill="#E24B4A" fill-opacity="0.9"/><polygon points="508.6,329.5 513.1,337.5 504.1,337.5" fill="#E24B4A" fill-opacity="0.9"/><polygon points="515.5,335.5 520.0,343.5 511.0,343.5" fill="#E24B4A" fill-opacity="0.9"/><polygon points="541.7,323.5 546.2,331.5 537.2,331.5" fill="#E24B4A" fill-opacity="0.9"/><polygon points="554.7,329.5 559.2,337.5 550.2,337.5" fill="#E24B4A" fill-opacity="0.9"/><text x="158" y="382" font-size="12" fill="#3f3f3c" text-anchor="end">product swap</text><polygon points="213.8,367.5 218.3,375.5 209.3,375.5" fill="#E24B4A" fill-opacity="0.9"/><polygon points="258.6,373.5 263.1,381.5 254.1,381.5" fill="#E24B4A" fill-opacity="0.9"/><polygon points="314.0,379.5 318.5,387.5 309.5,387.5" fill="#E24B4A" fill-opacity="0.9"/><polygon points="334.4,367.5 338.9,375.5 329.9,375.5" fill="#E24B4A" fill-opacity="0.9"/><polygon points="410.8,373.5 415.3,381.5 406.3,381.5" fill="#E24B4A" fill-opacity="0.9"/><polygon points="422.5,379.5 427.0,387.5 418.0,387.5" fill="#E24B4A" fill-opacity="0.9"/><polygon points="484.4,367.5 488.9,375.5 479.9,375.5" fill="#E24B4A" fill-opacity="0.9"/><polygon points="502.2,373.5 506.7,381.5 497.7,381.5" fill="#E24B4A" fill-opacity="0.9"/><polygon points="518.5,379.5 523.0,387.5 514.0,387.5" fill="#E24B4A" fill-opacity="0.9"/><polygon points="598.9,367.5 603.4,375.5 594.4,375.5" fill="#E24B4A" fill-opacity="0.9"/></svg>
